# xmcd
#
# Track frame offsets:
#	150
#	16288
#	29478
#	47164
#	57899
#	80087
#
# Disc length: 3292 seconds
#
# Revision: 2
# Processed by: cddbd v1.5.2PL0 Copyright (c) Steve Scherf et al.
# Submitted via: audiograbber 1.83.01
#
DISCID=480cda06
DTITLE=The Baseballs - Strike ! Back - Rock'n'roll recordings
DYEAR=2010
DGENRE=Rock and Roll
TTITLE0=No one
TTITLE1=Chasing cars
TTITLE2=Monday morning
TTITLE3=Pocker face
TTITLE4=Jungle drum
TTITLE5=Titel 6
EXTD=YEAR: 2010
EXTT0=
EXTT1=
EXTT2=
EXTT3=
EXTT4=
EXTT5=
PLAYORDER=
